<svg xmlns="http://www.w3.org/2000/svg" width="19" height="18" viewBox="0 0 19 18" fill="none">
  <path d="M17.375 6.60938C17.375 11.5312 10.0773 15.5152 9.76648 15.6797C9.68457 15.7238 9.59301 15.7468 9.5 15.7468C9.40699 15.7468 9.31543 15.7238 9.23352 15.6797C8.92273 15.5152 1.625 11.5312 1.625 6.60938C1.6263 5.4536 2.08601 4.34553 2.90327 3.52827C3.72053 2.71101 4.8286 2.2513 5.98438 2.25C7.43633 2.25 8.70758 2.87437 9.5 3.92977C10.2924 2.87437 11.5637 2.25 13.0156 2.25C14.1714 2.2513 15.2795 2.71101 16.0967 3.52827C16.914 4.34553 17.3737 5.4536 17.375 6.60938Z" fill="#FF3536"/>
</svg>