<svg width="598" height="396" viewBox="0 0 598 396" fill="none" xmlns="http://www.w3.org/2000/svg">
<path d="M16.5507 114.697C38.0275 107.793 59.7344 104.342 81.6713 104.342C103.608 104.342 120.483 108.023 132.295 115.387C135.056 123.671 136.437 131.571 136.437 139.088C136.437 156.73 129.15 171.533 114.577 183.499C100.003 195.311 81.2111 203.825 58.2003 209.041L52.6777 260.585L29.6669 262.886L16.5507 114.697ZM92.0262 145.761C92.0262 133.949 87.1939 125.128 77.5294 119.299C74.7681 119.299 71.3932 119.836 67.4046 120.909L59.8111 193.394C69.7824 187.871 77.6061 180.738 83.2821 171.994C89.1115 163.249 92.0262 154.505 92.0262 145.761Z" fill="white"/>
<path d="M166.56 263.116L154.824 149.213L204.067 141.619L189.34 261.045L166.56 263.116ZM161.958 123.671C157.816 119.375 155.745 114.313 155.745 108.484C155.745 102.654 157.816 97.6686 161.958 93.5266C166.253 89.2313 171.315 87.0836 177.145 87.0836C182.974 87.0836 187.96 89.2313 192.102 93.5266C196.397 97.6686 198.545 102.654 198.545 108.484C198.545 114.313 196.397 119.375 192.102 123.671C187.96 127.813 182.974 129.884 177.145 129.884C171.315 129.884 166.253 127.813 161.958 123.671Z" fill="#FFBD48"/>
<path d="M237.552 142.54L330.976 144.611L333.967 168.542L256.881 244.708L328.214 236.194L329.595 259.665L230.418 261.736L231.109 247.699L282.883 163.48L238.242 158.877L237.552 142.54Z" fill="#FF3536"/>
<path d="M366.313 142.54L459.737 144.611L462.729 168.542L385.643 244.708L456.976 236.194L458.357 259.665L359.18 261.736L359.87 247.699L411.645 163.48L367.004 158.877L366.313 142.54Z" fill="#60BB28"/>
<path d="M508.652 264.957C506.044 264.957 504.126 264.881 502.899 264.727C497.683 261.199 493.464 255.983 490.243 249.08C487.175 242.023 485.641 234.736 485.641 227.219C485.641 217.402 489.322 210.268 496.686 205.819C504.203 201.371 517.933 199.146 537.875 199.146C545.239 199.146 552.909 199.683 560.886 200.757L560.426 195.695C559.812 189.558 556.898 184.726 551.682 181.198C546.466 177.516 539.793 175.675 531.662 175.675C523.532 175.675 515.401 178.206 507.271 183.269L497.146 149.903C510.339 144.534 525.373 141.849 542.247 141.849C559.122 141.849 572.468 145.684 582.286 153.355C592.104 160.872 597.013 172.684 597.013 188.791C597.013 192.473 596.86 195.388 596.553 197.536L590.11 261.045L567.329 263.116L563.878 229.751H562.037C556.821 240.796 549.611 249.463 540.406 255.753C531.202 261.889 520.617 264.957 508.652 264.957ZM561.807 210.422L549.611 210.191C539.486 210.191 531.202 210.728 524.759 211.802C522.611 216.098 521.538 219.933 521.538 223.308C521.538 226.683 521.998 229.904 522.918 232.972C523.839 236.04 524.836 238.111 525.91 239.185C544.318 236.27 556.284 226.683 561.807 210.422Z" fill="white"/>
<path d="M224.827 338.896C224.827 341.352 224.202 343.697 222.952 345.929C221.746 348.162 220.094 350.127 217.995 351.824C215.941 353.476 213.507 354.793 210.694 355.776C207.925 356.758 204.978 357.25 201.852 357.25C200.736 357.25 199.842 357.116 199.173 356.848C198.547 356.535 197.833 355.955 197.029 355.106C194.796 359.974 192.965 364.461 191.536 368.57C190.152 372.633 189.058 376.585 188.254 380.426C186.557 380.024 185.173 379.309 184.101 378.282C183.03 377.3 182.047 376.05 181.154 374.531C181.601 373.683 182.136 372.566 182.762 371.182C183.387 369.798 184.146 368.101 185.039 366.091C185.932 364.037 186.959 361.603 188.12 358.79C189.326 355.932 190.733 352.605 192.34 348.81C193.055 347.068 193.68 345.55 194.216 344.255C194.752 342.96 195.221 341.754 195.622 340.638C196.024 339.477 196.382 338.338 196.694 337.221C197.051 336.105 197.409 334.877 197.766 333.537C195.667 334.207 193.725 334.989 191.938 335.882C190.197 336.775 188.745 337.713 187.584 338.695C187.183 338.427 186.758 338.025 186.312 337.489C185.91 336.954 185.53 336.373 185.173 335.748C184.816 335.078 184.503 334.408 184.235 333.738C183.967 333.068 183.811 332.466 183.766 331.93C185.061 331.037 186.669 330.211 188.589 329.451C190.509 328.692 192.564 328.045 194.752 327.509C196.94 326.928 199.195 326.482 201.517 326.169C203.884 325.857 206.139 325.7 208.282 325.7C210.828 325.7 213.127 326.035 215.182 326.705C217.236 327.33 218.977 328.223 220.406 329.384C221.835 330.545 222.929 331.93 223.689 333.537C224.448 335.145 224.827 336.931 224.827 338.896ZM212.904 330.858C211.207 330.858 209.466 330.992 207.679 331.26L208.483 332.466C208.037 333.046 207.479 333.917 206.809 335.078C206.139 336.239 205.402 337.646 204.598 339.298C203.794 340.906 202.901 342.714 201.919 344.724C200.981 346.733 199.976 348.854 198.905 351.087C202.388 351.087 205.558 350.774 208.416 350.149C211.274 349.479 213.708 348.586 215.718 347.47C217.772 346.309 219.357 344.969 220.473 343.451C221.634 341.933 222.215 340.303 222.215 338.561C222.215 336.239 221.433 334.386 219.87 333.001C218.308 331.573 215.985 330.858 212.904 330.858Z" fill="white"/>
<path d="M244.788 347.269C244.61 350.038 244.119 352.427 243.315 354.436C242.511 356.401 241.35 358.143 239.832 359.661C238.358 361.135 236.549 362.474 234.406 363.68C232.262 364.886 229.762 366.047 226.904 367.163C226.904 367.431 226.881 367.721 226.837 368.034C226.837 368.302 226.837 368.592 226.837 368.905C226.837 369.485 226.881 370.088 226.971 370.713C227.06 371.338 227.216 371.919 227.44 372.455C227.663 372.991 227.976 373.437 228.377 373.794C228.779 374.107 229.293 374.263 229.918 374.263C231.124 374.263 232.307 373.995 233.468 373.46C234.629 372.924 235.723 372.276 236.75 371.517C237.822 370.713 238.805 369.865 239.698 368.972C240.635 368.034 241.462 367.185 242.176 366.426C242.623 366.828 243.002 367.208 243.315 367.565C241.305 370.244 239.095 372.477 236.683 374.263C234.317 376.005 232.062 377.121 229.918 377.613C226.837 377.255 224.425 376.139 222.684 374.263C220.987 372.343 220.138 370.043 220.138 367.364C220.138 365.533 220.384 363.68 220.875 361.804C221.411 359.884 222.126 358.053 223.019 356.312C223.956 354.526 225.028 352.851 226.234 351.288C227.484 349.725 228.802 348.363 230.186 347.202C231.615 346.041 233.066 345.126 234.54 344.456C236.058 343.786 237.554 343.451 239.028 343.451C241.082 343.719 243.002 344.992 244.788 347.269ZM240.167 349.479C238.961 349.658 237.71 350.149 236.415 350.953C235.12 351.757 233.892 352.829 232.731 354.168C231.615 355.508 230.588 357.071 229.65 358.857C228.712 360.643 227.976 362.564 227.44 364.618C231.012 362.832 233.982 360.643 236.348 358.053C238.715 355.419 239.988 352.561 240.167 349.479Z" fill="white"/>
<path d="M262.492 343.719C263.385 343.719 264.412 343.987 265.573 344.523C266.734 345.059 267.761 345.751 268.654 346.599C268.431 344.813 268.141 343.138 267.784 341.575C267.471 339.968 266.98 338.316 266.31 336.619C265.685 334.922 264.836 333.069 263.765 331.059C262.693 329.049 261.353 326.75 259.746 324.16C259.88 323.758 260.17 323.289 260.616 322.753C261.108 322.217 261.643 321.726 262.224 321.279C262.849 320.788 263.474 320.364 264.1 320.007C264.769 319.649 265.395 319.426 265.975 319.337C267.225 320.721 268.409 322.463 269.525 324.562C270.642 326.616 271.624 328.849 272.472 331.26C273.321 333.627 273.968 336.083 274.415 338.628C274.906 341.173 275.152 343.607 275.152 345.929C275.152 348.251 274.884 350.641 274.348 353.097C273.857 355.553 273.142 357.964 272.205 360.331C271.311 362.653 270.262 364.863 269.056 366.962C267.851 369.061 266.533 370.937 265.104 372.589C263.72 374.241 262.269 375.581 260.75 376.608C259.232 377.68 257.714 378.349 256.195 378.617C253.114 378.26 250.747 377.255 249.095 375.603C247.488 373.995 246.684 371.763 246.684 368.905C246.684 367.386 246.907 365.734 247.354 363.948C247.845 362.162 248.47 360.398 249.229 358.656C250.033 356.87 250.948 355.151 251.976 353.498C253.047 351.802 254.164 350.283 255.325 348.944C256.53 347.604 257.736 346.465 258.942 345.527C260.147 344.59 261.331 343.987 262.492 343.719ZM255.66 375.938C257.223 375.402 258.785 374.219 260.348 372.388C261.911 370.557 263.318 368.413 264.568 365.957C265.819 363.457 266.824 360.8 267.583 357.986C268.386 355.128 268.788 352.382 268.788 349.747C268.788 348.988 268.788 348.519 268.788 348.341C268.788 348.162 268.766 347.983 268.721 347.805C267.65 348.251 266.511 349.011 265.305 350.082C264.1 351.154 262.894 352.404 261.688 353.833C260.482 355.218 259.344 356.736 258.272 358.388C257.2 360.041 256.24 361.693 255.392 363.345C254.543 364.997 253.873 366.583 253.382 368.101C252.891 369.619 252.645 370.959 252.645 372.12C252.645 374.353 253.65 375.625 255.66 375.938Z" fill="white"/>
<path d="M299.977 347.939C300.424 347.939 300.937 348.028 301.518 348.207C302.143 348.341 302.701 348.542 303.192 348.81C303.684 349.033 304.085 349.279 304.398 349.546C304.755 349.814 304.934 350.06 304.934 350.283C304.041 352.159 303.215 354.057 302.455 355.977C301.696 357.852 301.049 359.661 300.513 361.403C299.977 363.144 299.553 364.774 299.24 366.292C298.972 367.811 298.838 369.128 298.838 370.244C298.838 371.495 298.972 372.544 299.24 373.393C299.508 374.196 299.955 374.777 300.58 375.134C300.044 375.491 299.352 375.782 298.503 376.005C297.655 376.228 296.896 376.34 296.226 376.34C293.815 376.34 292.609 374.688 292.609 371.383C292.609 368.838 293.457 365.355 295.154 360.934C294.261 362.988 293.234 364.93 292.073 366.761C290.912 368.547 289.729 370.133 288.523 371.517C287.317 372.901 286.089 374.04 284.839 374.933C283.633 375.782 282.517 376.295 281.49 376.474C279.837 376.384 278.498 375.603 277.471 374.129C276.444 372.611 275.93 370.691 275.93 368.369C275.93 365.868 276.466 363.233 277.538 360.465C278.609 357.696 279.971 355.128 281.624 352.762C283.32 350.395 285.151 348.43 287.116 346.867C289.081 345.259 290.979 344.411 292.81 344.322C293.256 344.456 293.748 344.724 294.283 345.126C294.864 345.527 295.4 345.996 295.891 346.532C296.427 347.068 296.874 347.626 297.231 348.207C297.588 348.743 297.789 349.212 297.834 349.613C296.047 349.881 294.194 350.752 292.274 352.226C290.398 353.699 288.679 355.486 287.116 357.584C285.598 359.639 284.348 361.849 283.365 364.216C282.383 366.583 281.892 368.793 281.892 370.847C281.892 371.696 282.204 372.232 282.829 372.455C284.124 372.187 285.62 371.093 287.317 369.173C289.014 367.208 291.068 364.194 293.48 360.13C293.926 359.326 294.417 358.433 294.953 357.451C295.534 356.468 296.114 355.441 296.695 354.369C297.275 353.298 297.834 352.226 298.369 351.154C298.95 350.038 299.486 348.966 299.977 347.939Z" fill="white"/>
<path d="M308.143 363.211C308.143 360.666 308.657 358.21 309.684 355.843C310.756 353.431 312.14 351.31 313.837 349.479C315.578 347.604 317.543 346.108 319.731 344.992C321.964 343.831 324.264 343.25 326.631 343.25C328.953 343.25 330.739 343.831 331.989 344.992C333.24 346.153 333.865 347.805 333.865 349.948C333.865 350.975 333.709 351.98 333.396 352.963C333.128 353.9 332.749 354.749 332.257 355.508C331.811 356.267 331.275 356.892 330.65 357.384C330.025 357.83 329.399 358.053 328.774 358.053C328.238 358.053 327.68 357.897 327.1 357.584C326.564 357.227 326.117 356.781 325.76 356.245C328.752 353.521 330.248 351.042 330.248 348.81C330.248 347.515 329.734 346.867 328.707 346.867C327.814 346.867 326.698 347.291 325.358 348.14C324.018 348.988 322.723 350.105 321.473 351.489C319.553 353.632 318.079 356.022 317.052 358.656C316.07 361.246 315.578 363.97 315.578 366.828C315.578 370.445 316.382 372.611 317.99 373.326C318.66 373.236 319.441 373.035 320.334 372.723C321.227 372.41 322.188 372.008 323.215 371.517C324.242 370.981 325.291 370.378 326.363 369.708C327.479 369.039 328.551 368.324 329.578 367.565C329.757 367.699 329.913 367.9 330.047 368.168C330.181 368.436 330.248 368.681 330.248 368.905C329.533 369.798 328.707 370.669 327.77 371.517C326.832 372.366 325.849 373.147 324.822 373.861C323.795 374.576 322.79 375.201 321.808 375.737C320.826 376.273 319.955 376.63 319.196 376.809C318.481 377.836 317.834 378.841 317.253 379.823C316.673 380.805 316.226 381.676 315.913 382.435C316.315 382.212 316.807 381.989 317.387 381.766C318.012 381.587 318.637 381.408 319.263 381.23C319.888 381.051 320.491 380.917 321.071 380.828C321.696 380.738 322.21 380.694 322.612 380.694C322.79 380.694 323.103 380.828 323.55 381.096C323.996 381.408 324.42 381.743 324.822 382.1C325.269 382.458 325.648 382.815 325.961 383.172C326.318 383.529 326.497 383.797 326.497 383.976C326.497 384.289 326.229 384.78 325.693 385.45C325.157 386.119 324.465 386.856 323.617 387.66C322.813 388.464 321.897 389.312 320.87 390.205C319.843 391.099 318.861 391.902 317.923 392.617C316.985 393.331 316.114 393.912 315.311 394.358C314.551 394.85 313.993 395.095 313.636 395.095C313.547 395.095 313.413 394.984 313.234 394.76C313.1 394.582 312.944 394.358 312.765 394.091C312.631 393.823 312.497 393.555 312.363 393.287C312.274 393.019 312.229 392.818 312.229 392.684C313.256 391.835 314.15 391.054 314.909 390.339C315.668 389.625 316.36 388.933 316.985 388.263C317.61 387.593 318.191 386.879 318.727 386.119C319.263 385.36 319.821 384.512 320.401 383.574C320.044 383.663 319.531 383.775 318.861 383.909C318.191 384.088 317.476 384.289 316.717 384.512C316.003 384.78 315.266 385.025 314.507 385.249C313.792 385.517 313.167 385.74 312.631 385.919C312.497 385.829 312.386 385.695 312.296 385.517C312.207 385.383 312.14 385.249 312.095 385.115C312.319 384.356 312.921 383.172 313.904 381.565C314.886 379.957 316.025 378.327 317.32 376.675C316.025 376.362 314.819 375.782 313.703 374.933C312.587 374.085 311.604 373.058 310.756 371.852C309.952 370.646 309.304 369.307 308.813 367.833C308.367 366.359 308.143 364.819 308.143 363.211Z" fill="white"/>
<path d="M343.709 377.345C341.164 377.077 339.132 375.96 337.614 373.995C336.096 372.031 335.337 369.53 335.337 366.493C335.337 364.707 335.604 362.854 336.14 360.934C336.676 359.013 337.435 357.16 338.418 355.374C339.4 353.543 340.561 351.824 341.901 350.216C343.241 348.609 344.692 347.224 346.255 346.063C348.711 344.232 351.011 343.317 353.154 343.317C354.583 344.076 355.99 345.661 357.374 348.073C357.597 348.073 357.798 348.073 357.977 348.073C358.156 348.028 358.357 348.006 358.58 348.006C360.947 348.006 362.13 350.105 362.13 354.302C362.13 357.116 361.661 359.795 360.723 362.34C359.83 364.841 358.557 367.118 356.905 369.173C355.298 371.227 353.355 372.968 351.078 374.397C348.845 375.782 346.389 376.764 343.709 377.345ZM347.126 356.245C346.366 357.272 345.652 358.388 344.982 359.594C344.312 360.8 343.732 362.028 343.241 363.278C342.749 364.484 342.37 365.667 342.102 366.828C341.834 367.945 341.7 368.949 341.7 369.842C341.7 370.914 341.879 371.941 342.236 372.924C342.593 373.906 342.995 374.464 343.442 374.598C345.451 374.152 347.282 373.326 348.934 372.12C350.631 370.87 352.082 369.329 353.288 367.498C354.538 365.667 355.499 363.591 356.168 361.269C356.883 358.946 357.24 356.468 357.24 353.833C357.24 352.672 357.173 351.757 357.039 351.087C356.905 350.417 356.682 349.837 356.369 349.345C354.405 349.926 352.641 350.864 351.078 352.159C349.559 353.454 348.242 354.816 347.126 356.245Z" fill="white"/>
<path d="M395.936 343.719C396.829 343.719 397.856 343.987 399.017 344.523C400.178 345.059 401.205 345.751 402.098 346.599C401.875 344.813 401.585 343.138 401.227 341.575C400.915 339.968 400.424 338.316 399.754 336.619C399.129 334.922 398.28 333.069 397.208 331.059C396.137 329.049 394.797 326.75 393.189 324.16C393.323 323.758 393.614 323.289 394.06 322.753C394.551 322.217 395.087 321.726 395.668 321.279C396.293 320.788 396.918 320.364 397.543 320.007C398.213 319.649 398.838 319.426 399.419 319.337C400.669 320.721 401.853 322.463 402.969 324.562C404.085 326.616 405.068 328.849 405.916 331.26C406.765 333.627 407.412 336.083 407.859 338.628C408.35 341.173 408.596 343.607 408.596 345.929C408.596 348.251 408.328 350.641 407.792 353.097C407.301 355.553 406.586 357.964 405.648 360.331C404.755 362.653 403.706 364.863 402.5 366.962C401.294 369.061 399.977 370.937 398.548 372.589C397.164 374.241 395.712 375.581 394.194 376.608C392.676 377.68 391.158 378.349 389.639 378.617C386.558 378.26 384.191 377.255 382.539 375.603C380.931 373.995 380.128 371.763 380.128 368.905C380.128 367.386 380.351 365.734 380.797 363.948C381.289 362.162 381.914 360.398 382.673 358.656C383.477 356.87 384.392 355.151 385.419 353.498C386.491 351.802 387.607 350.283 388.768 348.944C389.974 347.604 391.18 346.465 392.386 345.527C393.591 344.59 394.775 343.987 395.936 343.719ZM389.103 375.938C390.666 375.402 392.229 374.219 393.792 372.388C395.355 370.557 396.762 368.413 398.012 365.957C399.263 363.457 400.267 360.8 401.026 357.986C401.83 355.128 402.232 352.382 402.232 349.747C402.232 348.988 402.232 348.519 402.232 348.341C402.232 348.162 402.21 347.983 402.165 347.805C401.093 348.251 399.955 349.011 398.749 350.082C397.543 351.154 396.338 352.404 395.132 353.833C393.926 355.218 392.788 356.736 391.716 358.388C390.644 360.041 389.684 361.693 388.835 363.345C387.987 364.997 387.317 366.583 386.826 368.101C386.335 369.619 386.089 370.959 386.089 372.12C386.089 374.353 387.094 375.625 389.103 375.938Z" fill="white"/>
<path d="M433.421 347.939C433.867 347.939 434.381 348.028 434.961 348.207C435.587 348.341 436.145 348.542 436.636 348.81C437.127 349.033 437.529 349.279 437.842 349.546C438.199 349.814 438.378 350.06 438.378 350.283C437.485 352.159 436.658 354.057 435.899 355.977C435.14 357.852 434.493 359.661 433.957 361.403C433.421 363.144 432.997 364.774 432.684 366.292C432.416 367.811 432.282 369.128 432.282 370.244C432.282 371.495 432.416 372.544 432.684 373.393C432.952 374.196 433.399 374.777 434.024 375.134C433.488 375.491 432.796 375.782 431.947 376.005C431.099 376.228 430.34 376.34 429.67 376.34C427.258 376.34 426.053 374.688 426.053 371.383C426.053 368.838 426.901 365.355 428.598 360.934C427.705 362.988 426.678 364.93 425.517 366.761C424.356 368.547 423.172 370.133 421.967 371.517C420.761 372.901 419.533 374.04 418.283 374.933C417.077 375.782 415.96 376.295 414.933 376.474C413.281 376.384 411.941 375.603 410.914 374.129C409.887 372.611 409.374 370.691 409.374 368.369C409.374 365.868 409.91 363.233 410.981 360.465C412.053 357.696 413.415 355.128 415.067 352.762C416.764 350.395 418.595 348.43 420.56 346.867C422.525 345.259 424.423 344.411 426.254 344.322C426.7 344.456 427.191 344.724 427.727 345.126C428.308 345.527 428.844 345.996 429.335 346.532C429.871 347.068 430.317 347.626 430.675 348.207C431.032 348.743 431.233 349.212 431.277 349.613C429.491 349.881 427.638 350.752 425.718 352.226C423.842 353.699 422.123 355.486 420.56 357.584C419.042 359.639 417.791 361.849 416.809 364.216C415.827 366.583 415.335 368.793 415.335 370.847C415.335 371.696 415.648 372.232 416.273 372.455C417.568 372.187 419.064 371.093 420.761 369.173C422.458 367.208 424.512 364.194 426.923 360.13C427.37 359.326 427.861 358.433 428.397 357.451C428.978 356.468 429.558 355.441 430.139 354.369C430.719 353.298 431.277 352.226 431.813 351.154C432.394 350.038 432.93 348.966 433.421 347.939Z" fill="white"/>
<path d="M460.014 371.182C460.014 369.575 460.259 367.498 460.751 364.953C461.287 362.363 461.956 359.594 462.76 356.647C463.609 353.655 464.569 350.618 465.64 347.537C466.712 344.411 467.806 341.486 468.923 338.762C470.039 336.038 471.133 333.649 472.205 331.595C473.277 329.541 474.237 328.067 475.085 327.174C475.532 327.219 476.112 327.397 476.827 327.71C477.586 327.978 478.345 328.313 479.104 328.715C479.863 329.116 480.555 329.563 481.181 330.054C481.806 330.501 482.208 330.925 482.386 331.327C481.091 332.488 479.796 334.252 478.501 336.619C477.251 338.941 476.023 341.598 474.817 344.59C473.656 347.582 472.562 350.752 471.535 354.101C470.508 357.406 469.615 360.621 468.856 363.747C468.097 366.873 467.494 369.775 467.047 372.455C466.645 375.134 466.444 377.3 466.444 378.952C466.444 379.711 466.511 380.18 466.645 380.359C465.663 380.314 464.948 380.136 464.502 379.823C464.055 379.555 463.698 379.242 463.43 378.885C463.207 378.573 462.983 378.238 462.76 377.88C462.582 377.568 462.291 377.322 461.889 377.144C461.577 377.01 461.309 376.697 461.086 376.206C460.862 375.715 460.661 375.179 460.483 374.598C460.349 373.973 460.237 373.348 460.148 372.723C460.059 372.098 460.014 371.584 460.014 371.182Z" fill="white"/>
<path d="M481.313 349.345C481.089 349.078 480.888 348.519 480.71 347.671C480.531 346.778 480.442 346.019 480.442 345.393C481.603 345.483 482.719 345.572 483.791 345.661C484.863 345.706 485.845 345.751 486.738 345.795C487.408 344.456 488.123 343.138 488.882 341.843C489.685 340.504 490.445 339.298 491.159 338.226C491.918 337.11 492.61 336.172 493.236 335.413C493.905 334.654 494.419 334.163 494.776 333.939C495.223 333.939 495.781 334.029 496.451 334.207C497.165 334.341 497.88 334.542 498.594 334.81C499.309 335.033 499.956 335.279 500.537 335.547C501.117 335.815 501.519 336.083 501.743 336.351C500.403 338.048 499.242 339.633 498.259 341.107C497.322 342.535 496.295 344.188 495.178 346.063C496.071 346.063 496.964 346.041 497.857 345.996C498.795 345.952 499.733 345.885 500.671 345.795C500.894 346.019 501.073 346.309 501.207 346.666C501.341 346.979 501.408 347.314 501.408 347.671C499.219 348.475 496.562 348.921 493.437 349.011C492.32 351.154 491.315 353.298 490.422 355.441C489.574 357.54 488.837 359.572 488.212 361.536C487.631 363.501 487.162 365.355 486.805 367.096C486.493 368.838 486.336 370.401 486.336 371.785C486.336 373.75 487.073 374.844 488.547 375.067C489.886 374.889 491.159 374.554 492.365 374.062C493.571 373.571 494.642 372.946 495.58 372.187C495.848 372.589 496.004 372.924 496.049 373.192C495.781 373.594 495.312 374.062 494.642 374.598C494.017 375.134 493.325 375.648 492.566 376.139C491.807 376.675 491.07 377.121 490.355 377.479C489.641 377.836 489.105 378.037 488.748 378.081C487.631 378.037 486.515 377.791 485.399 377.345C484.282 376.898 483.255 376.34 482.317 375.67C481.424 375 480.687 374.263 480.107 373.46C479.526 372.611 479.236 371.785 479.236 370.981C479.236 369.909 479.37 368.57 479.638 366.962C479.951 365.31 480.375 363.524 480.911 361.603C481.447 359.683 482.072 357.674 482.786 355.575C483.501 353.476 484.282 351.4 485.131 349.345H481.313Z" fill="white"/>
<path d="M524.019 347.939C524.465 347.939 524.979 348.028 525.559 348.207C526.185 348.341 526.743 348.542 527.234 348.81C527.725 349.033 528.127 349.279 528.44 349.546C528.797 349.814 528.976 350.06 528.976 350.283C528.082 352.159 527.256 354.057 526.497 355.977C525.738 357.852 525.09 359.661 524.555 361.403C524.019 363.144 523.594 364.774 523.282 366.292C523.014 367.811 522.88 369.128 522.88 370.244C522.88 371.495 523.014 372.544 523.282 373.393C523.55 374.196 523.996 374.777 524.622 375.134C524.086 375.491 523.394 375.782 522.545 376.005C521.697 376.228 520.938 376.34 520.268 376.34C517.856 376.34 516.651 374.688 516.651 371.383C516.651 368.838 517.499 365.355 519.196 360.934C518.303 362.988 517.276 364.93 516.115 366.761C514.954 368.547 513.77 370.133 512.565 371.517C511.359 372.901 510.131 374.04 508.88 374.933C507.675 375.782 506.558 376.295 505.531 376.474C503.879 376.384 502.539 375.603 501.512 374.129C500.485 372.611 499.972 370.691 499.972 368.369C499.972 365.868 500.508 363.233 501.579 360.465C502.651 357.696 504.013 355.128 505.665 352.762C507.362 350.395 509.193 348.43 511.158 346.867C513.123 345.259 515.021 344.411 516.852 344.322C517.298 344.456 517.789 344.724 518.325 345.126C518.906 345.527 519.442 345.996 519.933 346.532C520.469 347.068 520.915 347.626 521.272 348.207C521.63 348.743 521.831 349.212 521.875 349.613C520.089 349.881 518.236 350.752 516.316 352.226C514.44 353.699 512.721 355.486 511.158 357.584C509.64 359.639 508.389 361.849 507.407 364.216C506.424 366.583 505.933 368.793 505.933 370.847C505.933 371.696 506.246 372.232 506.871 372.455C508.166 372.187 509.662 371.093 511.359 369.173C513.056 367.208 515.11 364.194 517.521 360.13C517.968 359.326 518.459 358.433 518.995 357.451C519.575 356.468 520.156 355.441 520.737 354.369C521.317 353.298 521.875 352.226 522.411 351.154C522.992 350.038 523.528 348.966 524.019 347.939ZM531.789 326.169C532.235 326.437 532.682 326.884 533.128 327.509C533.62 328.089 534.044 328.759 534.401 329.518C534.803 330.233 535.116 330.97 535.339 331.729C535.562 332.488 535.674 333.18 535.674 333.805C533.977 334.966 532.481 335.926 531.186 336.686C529.936 337.445 528.797 338.07 527.77 338.561C526.787 339.008 525.917 339.343 525.157 339.566C524.398 339.745 523.661 339.834 522.947 339.834C521.518 339.834 520.29 339.41 519.263 338.561C520.245 338.204 521.272 337.646 522.344 336.887C523.416 336.127 524.488 335.212 525.559 334.14C526.676 333.068 527.747 331.863 528.775 330.523C529.846 329.183 530.851 327.732 531.789 326.169Z" fill="white"/>
<path d="M532.306 370.713C532.306 368.748 532.775 366.002 533.713 362.474C534.651 358.902 535.968 354.749 537.665 350.015C540.434 342.469 543.024 336.194 545.435 331.193C547.891 326.147 550.28 322.217 552.602 319.404C553.138 319.493 553.786 319.716 554.545 320.074C555.349 320.431 556.13 320.833 556.889 321.279C557.648 321.681 558.318 322.105 558.899 322.552C559.524 322.999 559.926 323.356 560.105 323.624C556.621 327.732 553.562 332.153 550.928 336.887C548.293 341.62 545.882 347.046 543.694 353.164C541.818 358.433 540.389 363.189 539.407 367.431C538.424 371.629 537.933 375.134 537.933 377.947C537.933 378.707 537.933 379.176 537.933 379.354C537.933 379.533 537.955 379.711 538 379.89C537.375 379.801 536.839 379.644 536.392 379.421C535.946 379.198 535.656 378.93 535.522 378.617C535.432 378.394 535.187 378.059 534.785 377.613C534.383 377.211 534.026 376.898 533.713 376.675C533.311 376.407 532.976 375.715 532.708 374.598C532.44 373.437 532.306 372.142 532.306 370.713Z" fill="white"/>
<path d="M548.27 370.512C548.27 370.11 548.293 369.619 548.337 369.039C548.427 368.413 548.561 367.61 548.739 366.627C548.918 365.6 549.141 364.372 549.409 362.943C549.722 361.514 550.101 359.795 550.548 357.785C550.637 357.339 550.838 356.624 551.151 355.642C551.463 354.66 551.865 353.632 552.356 352.561C552.892 351.444 553.517 350.373 554.232 349.345C554.991 348.318 555.884 347.559 556.911 347.068C557.67 347.247 558.675 347.716 559.926 348.475C561.176 349.189 562.248 350.194 563.141 351.489C562.114 352.65 561.243 353.811 560.528 354.972C559.859 356.133 559.233 357.339 558.653 358.589C558.117 359.84 557.603 361.135 557.112 362.474C556.666 363.814 556.152 365.221 555.572 366.694C555.08 367.945 554.634 369.24 554.232 370.579C553.83 371.874 553.607 373.013 553.562 373.995C553.562 374.799 553.54 375.357 553.495 375.67C553.495 376.027 553.383 376.206 553.16 376.206C552.982 376.206 552.624 376.094 552.089 375.871C551.553 375.648 550.994 375.313 550.414 374.866C549.878 374.375 549.387 373.772 548.94 373.058C548.494 372.343 548.27 371.495 548.27 370.512ZM561.064 341.441C561.064 341.173 561.131 340.772 561.265 340.236C561.042 340.012 560.841 339.678 560.662 339.231C560.528 338.784 560.461 338.383 560.461 338.025C560.461 337.623 560.506 337.087 560.595 336.418C560.729 335.703 560.886 334.944 561.064 334.14C561.243 333.336 561.466 332.51 561.734 331.662C562.002 330.769 562.27 329.965 562.538 329.25C563.074 329.25 563.721 329.407 564.48 329.719C565.284 329.987 566.088 330.367 566.892 330.858C567.696 331.305 568.432 331.818 569.102 332.399C569.772 332.935 570.286 333.448 570.643 333.939C570.152 334.43 569.504 335.123 568.7 336.016C567.897 336.864 567.115 337.78 566.356 338.762C565.597 339.7 564.905 340.593 564.279 341.441C563.654 342.29 563.252 342.893 563.074 343.25C562.538 343.161 562.069 342.937 561.667 342.58C561.265 342.178 561.064 341.799 561.064 341.441Z" fill="white"/>
<path d="M587.143 347.939C587.589 347.939 588.103 348.028 588.683 348.207C589.309 348.341 589.867 348.542 590.358 348.81C590.849 349.033 591.251 349.279 591.564 349.546C591.921 349.814 592.1 350.06 592.1 350.283C591.207 352.159 590.38 354.057 589.621 355.977C588.862 357.852 588.215 359.661 587.679 361.403C587.143 363.144 586.719 364.774 586.406 366.292C586.138 367.811 586.004 369.128 586.004 370.244C586.004 371.495 586.138 372.544 586.406 373.393C586.674 374.196 587.121 374.777 587.746 375.134C587.21 375.491 586.518 375.782 585.669 376.005C584.821 376.228 584.062 376.34 583.392 376.34C580.98 376.34 579.775 374.688 579.775 371.383C579.775 368.838 580.623 365.355 582.32 360.934C581.427 362.988 580.4 364.93 579.239 366.761C578.078 368.547 576.894 370.133 575.689 371.517C574.483 372.901 573.255 374.04 572.005 374.933C570.799 375.782 569.682 376.295 568.655 376.474C567.003 376.384 565.664 375.603 564.636 374.129C563.609 372.611 563.096 370.691 563.096 368.369C563.096 365.868 563.632 363.233 564.703 360.465C565.775 357.696 567.137 355.128 568.789 352.762C570.486 350.395 572.317 348.43 574.282 346.867C576.247 345.259 578.145 344.411 579.976 344.322C580.422 344.456 580.913 344.724 581.449 345.126C582.03 345.527 582.566 345.996 583.057 346.532C583.593 347.068 584.039 347.626 584.397 348.207C584.754 348.743 584.955 349.212 584.999 349.613C583.213 349.881 581.36 350.752 579.44 352.226C577.564 353.699 575.845 355.486 574.282 357.584C572.764 359.639 571.513 361.849 570.531 364.216C569.549 366.583 569.057 368.793 569.057 370.847C569.057 371.696 569.37 372.232 569.995 372.455C571.29 372.187 572.786 371.093 574.483 369.173C576.18 367.208 578.234 364.194 580.645 360.13C581.092 359.326 581.583 358.433 582.119 357.451C582.7 356.468 583.28 355.441 583.861 354.369C584.441 353.298 584.999 352.226 585.535 351.154C586.116 350.038 586.652 348.966 587.143 347.939Z" fill="white"/>
<path d="M37.8465 64.7047C39.3949 67.3679 40.1691 69.9382 40.1691 72.4157C40.1691 72.9731 40.1072 73.4686 39.9833 73.9021C39.9214 74.3976 39.8285 74.8931 39.7046 75.3886C38.6517 75.2647 37.5369 75.1718 36.3601 75.1098C35.2452 75.0479 34.0685 75.0169 32.8298 75.0169C31.3433 75.0169 29.8259 75.0479 28.2775 75.1098C26.791 75.2337 25.1188 75.3886 23.2607 75.5744C21.4027 75.7602 19.3278 76.0079 17.0362 76.3176C14.7446 76.6273 12.0814 77.0299 9.04653 77.5253C7.62201 77.0299 6.19749 76.0389 4.77298 74.5524C3.34846 73.1279 2.01685 71.3937 0.778137 69.3498C1.39749 67.9873 2.17169 66.315 3.10072 64.3331C4.02975 62.2892 5.11362 59.8428 6.35233 56.9937C7.59104 54.0827 8.95363 50.7073 10.4401 46.8673C11.9885 42.9653 13.6298 38.475 15.3639 33.3963C16.4788 30.0518 17.4388 27.1098 18.244 24.5705C19.0491 22.0311 19.7614 19.5847 20.3807 17.2311C21.062 14.8156 21.7123 12.3072 22.3317 9.70595C22.951 7.10466 23.6323 4.10079 24.3756 0.694336C26.853 1.18982 28.9898 2.11885 30.7859 3.48144C32.644 4.78208 34.4091 6.67111 36.0814 9.14853C35.5859 9.9537 34.9356 11.2543 34.1304 13.0505C33.3252 14.8466 32.3652 17.0453 31.2504 19.6466C30.1975 22.186 29.0207 25.0969 27.7201 28.3795C26.4194 31.6002 25.0569 35.0685 23.6323 38.7847C22.2698 42.4389 20.9381 45.8763 19.6375 49.0969C18.3369 52.3176 17.1601 55.2286 16.1072 57.8298C15.1162 60.4311 14.311 62.6608 13.6917 64.5189C13.0723 66.3769 12.7627 67.7705 12.7627 68.6995C13.7536 68.6376 14.6517 68.5757 15.4569 68.5137C16.262 68.4518 17.0981 68.3589 17.9652 68.235C18.8323 68.0492 19.7614 67.8634 20.7523 67.6776C21.8052 67.4298 23.044 67.1202 24.4685 66.7486C25.7072 66.4389 26.853 66.1911 27.9059 66.0053C28.9588 65.7576 29.9807 65.5718 30.9717 65.4479C32.0246 65.2621 33.0775 65.1382 34.1304 65.0763C35.2452 64.9524 36.484 64.8286 37.8465 64.7047Z" fill="white"/>
<path d="M78.4242 32.4673C79.0436 32.4673 79.7558 32.5911 80.561 32.8389C81.4281 33.0247 82.2023 33.3034 82.8836 33.675C83.5649 33.9847 84.1223 34.3253 84.5558 34.6969C85.0513 35.0685 85.2991 35.4092 85.2991 35.7189C84.0603 38.3202 82.9145 40.9524 81.8616 43.6156C80.8087 46.2169 79.9107 48.7253 79.1674 51.1408C78.4242 53.5563 77.8358 55.8169 77.4023 57.9227C77.0307 60.0286 76.8449 61.8557 76.8449 63.404C76.8449 65.1382 77.0307 66.5937 77.4023 67.7705C77.7739 68.8853 78.3932 69.6905 79.2603 70.186C78.5171 70.6815 77.5571 71.084 76.3803 71.3937C75.2036 71.7034 74.1507 71.8582 73.2216 71.8582C69.8771 71.8582 68.2049 69.5666 68.2049 64.9834C68.2049 61.4531 69.3816 56.6221 71.7352 50.4905C70.4965 53.3395 69.072 56.0337 67.4616 58.5731C65.8513 61.0505 64.21 63.2492 62.5378 65.1692C60.8655 67.0892 59.1623 68.6686 57.4281 69.9073C55.7558 71.084 54.2074 71.7963 52.7829 72.044C50.4913 71.9202 48.6332 70.8363 47.2087 68.7924C45.7842 66.6866 45.0719 64.0234 45.0719 60.8027C45.0719 57.3344 45.8152 53.6802 47.3016 49.8402C48.7881 46.0002 50.6771 42.4389 52.9687 39.1563C55.3223 35.8737 57.8616 33.1485 60.5868 30.9808C63.312 28.7511 65.9442 27.5743 68.4836 27.4505C69.1029 27.6363 69.7842 28.0079 70.5274 28.5653C71.3326 29.1227 72.0758 29.7731 72.7571 30.5163C73.5003 31.2595 74.1197 32.0337 74.6152 32.8389C75.1107 33.5821 75.3894 34.2324 75.4513 34.7898C72.9739 35.1614 70.4036 36.3692 67.7403 38.4131C65.1391 40.4569 62.7545 42.9344 60.5868 45.8453C58.481 48.6944 56.7468 51.7602 55.3842 55.0427C54.0216 58.3253 53.3403 61.3911 53.3403 64.2402C53.3403 65.4169 53.7739 66.1602 54.641 66.4698C56.4371 66.0982 58.5119 64.5808 60.8655 61.9176C63.219 59.1924 66.0681 55.0118 69.4126 49.3756C70.032 48.2608 70.7132 47.0221 71.4565 45.6595C72.2616 44.2969 73.0668 42.8724 73.872 41.386C74.6771 39.8995 75.4513 38.4131 76.1945 36.9266C76.9997 35.3782 77.7429 33.8918 78.4242 32.4673Z" fill="white"/>
</svg>
